HIERARCHY
ROOT Hips
{
	OFFSET 0.000000 0.000000 0.000000 
	CHANNELS 6 Xposition Yposition Zposition Yrotation Zrotation Xrotation 
	JOINT Lumbar
	{
		OFFSET 0.000000 0.000000 0.000000 
		CHANNELS 3 Zrotation Xrotation Yrotation
		JOINT Neck
		{
			OFFSET 0.000000 0.445665 0.000000 
			CHANNELS 3 Zrotation Xrotation Yrotation
			End Site
			{
				OFFSET 0.000000 0.227535 0.000000 
			}
		}
		JOINT RightShoulder
		{
			OFFSET 0.019635 0.377685 0.194865 
			CHANNELS 3 Zrotation Xrotation Yrotation
			JOINT RightElbow
			{
				OFFSET 0.000000 -0.243375 0.000000 
				CHANNELS 2 Zrotation Yrotation
				JOINT RightWrist
				{
					OFFSET 0.000000 -0.264825 0.000000 
					CHANNELS 2 Zrotation Xrotation
					End Site
					{
						OFFSET 0.006600 -0.176220 0.000990 
					}
				}
			}
		}
		JOINT LeftShoulder
		{
			OFFSET 0.019635 0.377685 -0.194865 
			CHANNELS 3 Zrotation Xrotation Yrotation
			JOINT LeftElbow
			{
				OFFSET 0.000000 -0.243375 0.000000 
				CHANNELS 2 Zrotation Yrotation
				JOINT LeftWrist
				{
					OFFSET 0.000000 -0.264825 0.000000 
					CHANNELS 2 Zrotation Xrotation
					End Site
					{
						OFFSET 0.006600 -0.176220 -0.000990 
					}
				}
			}
		}
	}
	JOINT RightHip
	{
		OFFSET 0.052140 -0.069960 0.075570 
		CHANNELS 3 Zrotation Xrotation Yrotation
		JOINT RightKnee
		{
			OFFSET 0.000000 -0.402270 0.000000 
			CHANNELS 1 Zrotation
			JOINT RightAnkle
			{
				OFFSET 0.000000 -0.404085 0.000000 
				CHANNELS 3 Zrotation Xrotation Yrotation
				End Site
				{
					OFFSET 0.204105 -0.089430 0.008415 
				}
			}
		}
	}
	JOINT LeftHip
	{
		OFFSET 0.052140 -0.069960 -0.075570 
		CHANNELS 3 Zrotation Xrotation Yrotation
		JOINT LeftKnee
		{
			OFFSET 0.000000 -0.402270 0.000000 
			CHANNELS 1 Zrotation
			JOINT LeftAnkle
			{
				OFFSET 0.000000 -0.404085 0.000000 
				CHANNELS 3 Zrotation Xrotation Yrotation
				End Site
				{
					OFFSET 0.204105 -0.089430 -0.008415 
				}
			}
		}
	}
}
MOTION
Frames: 23
Frame Time: 0.02
-0.2053 0.96232 0.27838 83.15584 0 0.27699 -4.13487 0.40997 3.60172 -2.73317 -2.10068 0.77181 -7.96638 -14.73771 -16.31687 15.11006 81.55217 -0.97863 -1.04045 -8.10315 17.42702 -3.57185 114.77548 -110.63456 -43.33207 6.18348 7.82941 6.34566 25.91979 -27.58818 9.74066 -5.29234 -6.00564 16.78594 -2.98604 -6.60124 -39.34737 9.48925 7.0406 10.38143
-0.20803 0.96251 0.27471 81.03182 0 0.6786 -4.30281 0.21582 3.4282 -3.10145 -2.00141 0.77045 -6.30823 -15.03476 -15.4071 15.55045 81.55869 -0.95448 -1.5122 -7.75683 17.35556 -4.12822 114.7126 -110.83392 -43.74265 6.18926 8.02371 5.9843 27.19601 -28.09051 10.15007 -4.8888 -5.17883 15.79539 -3.62555 -7.01545 -36.34673 9.27674 7.01136 10.74673
-0.21095 0.96209 0.27031 78.90431 0 1.04897 -4.27983 -0.03641 3.12392 -3.88488 -1.72906 0.62961 -4.04978 -15.35809 -14.52908 15.89356 81.56838 -0.89924 -1.98825 -7.18994 17.07671 -4.45617 114.60556 -110.99675 -44.16149 6.19166 8.34457 5.7184 28.50969 -28.94178 10.68879 -4.46805 -4.38942 14.58846 -4.11105 -7.41726 -33.74808 8.79063 6.89618 11.37363
-0.21381 0.96191 0.26628 76.81045 0 1.46167 -4.34367 -0.29169 2.87869 -4.47713 -1.53188 0.53446 -2.08492 -15.65704 -13.64339 16.28798 81.57397 -0.86079 -2.46495 -6.70866 16.89986 -4.8936 114.53616 -111.18833 -44.58312 6.19712 8.64253 5.38737 29.75663 -29.69843 11.17378 -4.02699 -3.56996 13.49127 -4.68616 -7.75756 -30.99218 8.4377 6.8173 11.83824
-0.21659 0.96188 0.26208 74.57354 0 1.76384 -4.40518 -0.42886 2.63884 -5.08417 -1.35606 0.50732 -0.01978 -15.99761 -12.71686 16.66541 81.5896 -0.81274 -2.94475 -6.2879 16.69663 -5.30159 114.39016 -111.31359 -44.97021 6.19337 8.79673 5.14087 31.21738 -30.19307 11.64251 -3.70012 -2.79798 12.32883 -5.18066 -8.36791 -28.08788 8.04413 6.74676 12.48526
-0.21954 0.9614 0.25808 72.63927 0 2.28109 -4.42669 -0.81999 2.35241 -5.75927 -1.09118 0.31375 1.97184 -16.26378 -11.88934 17.04794 81.58586 -0.77672 -3.41107 -5.68854 16.49442 -5.71996 114.3982 -111.58143 -45.4411 6.21069 9.27731 4.74471 32.23524 -31.30592 12.17153 -3.13573 -1.93996 11.25811 -5.80165 -8.42424 -25.60574 7.67234 6.64016 12.81685
-0.22302 0.95972 0.2548 71.51067 0 3.45594 -4.38842 -1.94099 2.00533 -6.49813 -0.63291 -0.37657 3.6427 -16.2963 -11.30745 17.49457 81.52345 -0.78125 -3.87079 -4.65807 16.37101 -6.20697 114.79231 -112.15691 -46.05118 6.26978 10.65453 3.90109 32.0842 -34.13007 12.8653 -1.88946 -0.82564 10.48583 -6.85829 -6.87735 -24.16928 7.41678 6.44952 12.18929
-0.22663 0.95762 0.25177 70.69343 0 4.83715 -4.31611 -3.30711 1.60973 -7.29473 -0.08766 -1.21609 5.21181 -16.25935 -10.82983 17.94281 81.44219 -0.79888 -4.30879 -3.45462 16.24906 -6.71514 115.35176 -112.89258 -46.76121 6.35546 12.35016 2.90704 31.47644 -37.54664 13.60979 -0.41247 0.37153 9.81717 -8.03847 -4.78937 -23.15366 7.19468 6.22708 11.24058
-0.23011 0.95577 0.24863 69.75426 0 6.08706 -4.25714 -4.53276 1.21187 -8.07847 0.42448 -1.94071 6.80725 -16.26847 -10.3184 18.37222 81.37279 -0.81035 -4.73504 -2.32484 16.11122 -7.22555 115.86836 -113.62229 -47.48536 6.43798 13.88377 1.98914 31.03426 -40.63459 14.3106 0.94117 1.52656 9.10844 -9.13087 -2.99904 -21.96479 6.96502 6.02312 10.45321
-0.23388 0.95368 0.24543 68.73131 0 7.4955 -4.20045 -5.88373 0.90949 -8.81926 0.91291 -2.86967 8.5087 -16.21304 -9.74844 18.87683 81.29033 -0.82125 -5.25504 -1.20662 16.03651 -7.68083 116.24812 -114.08177 -47.96149 6.47486 15.49817 1.03927 30.76306 -43.98965 15.10136 2.38107 2.70896 8.36197 -10.35267 -0.98611 -20.71212 6.69449 5.79876 9.60579
-0.23707 0.95198 0.24243 67.95809 0 8.62171 -4.13344 -7.03048 0.40169 -9.65911 1.47234 -3.40585 9.95629 -16.28036 -9.32744 19.22391 81.22961 -0.83733 -5.57185 -0.02808 15.82578 -8.25524 116.95148 -115.12592 -48.974 6.62299 17.01415 0.12196 30.03622 -46.91924 15.71724 3.6864 3.84245 7.72188 -11.33472 0.68702 -19.68857 6.51933 5.61088 8.80905
-0.23874 0.95145 0.23988 67.78956 0 8.92987 -4.04701 -7.55769 -0.68957 -10.74364 2.17725 -2.82702 10.73179 -16.65844 -9.27159 19.15715 81.24132 -0.8607 -5.35602 1.2888 15.30622 -9.18386 118.51719 -117.8887 -51.47347 6.98407 18.21401 -0.69444 28.08271 -48.57038 15.81758 4.64332 4.92377 7.35032 -11.63842 1.32681 -19.18405 6.61206 5.52861 8.18357
-0.23978 0.95135 0.23753 67.86408 0 8.94473 -3.95217 -7.86932 -1.98022 -11.92562 2.95414 -1.84633 11.25066 -17.16961 -9.36691 18.92842 81.27385 -0.88989 -4.93269 2.6556 14.63933 -10.2253 120.39982 -121.20722 -54.50147 7.46986 19.29618 -1.46888 25.70203 -49.76231 15.74253 5.44102 5.93406 7.08377 -11.69458 1.59877 -18.8964 6.79877 5.48516 7.62715
-0.24102 0.95108 0.23511 67.832 0 9.0864 -3.86172 -8.2771 -3.16021 -13.07162 3.7178 -1.04437 11.8824 -17.65083 -9.40504 18.75992 81.29207 -0.91883 -4.58833 3.99052 13.99547 -11.19863 122.13347 -124.17823 -57.27028 7.95964 20.41054 -2.24561 23.56834 -51.13701 15.76138 6.26046 6.90918 6.76969 -11.85593 2.01469 -18.51366 6.93535 5.4262 7.06946
-0.24263 0.95069 0.23262 67.7911 0 9.26298 -3.76771 -8.70312 -4.42566 -14.18843 4.40681 -0.26244 12.53033 -18.00546 -9.39367 18.64709 81.33118 -0.93729 -4.30536 5.37477 13.53236 -12.25113 123.90008 -127.558 -60.13147 8.2055 21.62911 -3.09691 21.19225 -52.64658 15.7253 7.30529 8.17134 6.45662 -12.05302 2.54797 -18.1283 7.1037 5.35688 6.37576
-0.24331 0.95064 0.23031 67.82652 0 9.29408 -3.67942 -9.03427 -5.56097 -15.38387 5.26164 0.65642 13.08044 -18.6503 -9.52566 18.38084 81.3306 -0.97979 -3.84875 6.66038 12.66357 -13.15588 125.66325 -130.21337 -62.91353 8.97451 22.59463 -3.78283 19.22972 -53.75271 15.75734 7.83531 8.81846 6.16713 -12.11447 2.74178 -17.79803 7.22847 5.31903 5.9832
-0.24165 0.95143 0.22847 67.9751 0 8.99796 -3.61061 -9.17614 -6.27657 -16.81015 6.60413 1.8743 13.46085 -20.1153 -9.96553 17.72269 81.22728 -1.07869 -2.93624 7.70604 10.66107 -13.70434 127.40658 -130.75606 -65.44139 11.28003 22.92082 -4.00549 18.48066 -53.9023 16.05422 7.02406 7.77936 5.89913 -11.86822 2.09075 -17.53275 7.20442 5.35671 6.42949
-0.23907 0.95253 0.22681 68.19747 0 8.56413 -3.54755 -9.22514 -6.85544 -18.30469 8.10157 3.2127 13.74549 -21.85822 -10.55232 16.91768 81.08132 -1.20311 -1.86171 8.64081 8.26463 -14.08456 129.12235 -130.54535 -67.85369 14.08523 22.98881 -4.06549 18.17128 -53.65042 16.41923 5.69425 6.12602 5.65395 -11.49208 1.10797 -17.31938 7.13421 5.42511 7.17323
-0.23686 0.95348 0.22506 68.40977 0 8.19038 -3.48124 -9.30215 -7.50525 -19.74324 9.4967 4.48488 14.04925 -23.44096 -11.10619 16.1845 80.94694 -1.32134 -0.87879 9.59699 6.08111 -14.49064 130.80554 -130.66324 -70.2566 16.58056 23.15357 -4.21039 17.68419 -53.54949 16.73045 4.56985 4.75478 5.4098 -11.17088 0.27211 -17.10269 7.0885 5.48105 7.76685
-0.23481 0.95449 0.22335 68.53251 0 7.81661 -3.4181 -9.43115 -8.12812 -21.29131 11.02958 5.82183 14.4454 -25.17258 -11.52717 15.42227 80.84556 -1.4169 0.18892 10.68012 3.74951 -15.11732 132.68937 -130.85878 -72.93809 19.42767 23.40225 -4.30788 17.08743 -53.56528 17.13152 3.55578 3.36164 5.12187 -10.85902 -0.56173 -16.80922 7.03095 5.53255 8.42693
-0.23222 0.95544 0.22159 68.85504 0 7.41459 -3.34884 -9.43333 -8.76798 -22.62539 12.31075 7.04411 14.63174 -26.6568 -12.25202 14.69019 80.66584 -1.56575 1.11375 11.46841 1.63451 -15.23929 134.1458 -130.70649 -75.0066 21.66176 23.41513 -4.46563 16.83059 -53.24932 17.36447 2.20586 1.87796 4.92839 -10.49928 -1.47168 -16.68392 6.98623 5.59936 9.01693
-0.2285 0.95616 0.21961 69.71815 0 6.96448 -3.26976 -9.10261 -9.5209 -23.35732 12.86237 7.94502 14.24672 -27.40134 -13.82893 14.05726 80.27369 -1.85427 1.62068 11.49952 0.21787 -14.03865 134.4161 -129.77368 -75.39328 22.05672 22.85042 -4.83221 17.39544 -52.11071 17.11227 -0.07386 0.21969 4.99625 -10.04689 -2.52884 -17.01932 6.98462 5.70745 9.35396
-0.22423 0.95681 0.21757 70.7767 0 6.49316 -3.18279 -8.64988 -10.28795 -23.8696 13.15346 8.7193 13.65858 -27.88352 -15.69634 13.46422 79.80545 -2.19537 1.97406 11.23298 -0.96629 -12.32864 134.2578 -128.51484 -75.1674 21.82119 22.05633 -5.2642 18.29106 -50.65606 16.69035 -2.64888 -1.49374 5.15675 -9.5507 -3.64638 -17.51956 6.99775 5.82873 9.60802
